<?xml version="1.0" encoding="UTF-8"?><svg id="Layer_2" xmlns="http://www.w3.org/2000/svg" viewBox="0 0 391.7 418.44"><defs><style>.cls-1{fill:#fefefe;}.cls-1,.cls-2,.cls-3{stroke-width:0px;}.cls-2{fill:#0000fe;}.cls-3{fill:#0cf;}</style></defs><g id="Layer_1-2"><path class="cls-1" d="M279.79,83.93v27.99h-27.99v83.93h27.99v27.98h55.95v-27.98h-27.98v-55.95h55.95v-27.98h-27.98v-27.99h-55.95Z"/><path class="cls-1" d="M83.94,111.92v83.93h27.98v27.98h55.95v-27.98h-27.98v-55.95h55.95v-27.98h-27.98v-27.99h-55.95v27.99h-27.98Z"/><path class="cls-2" d="M139.89,139.89v55.95h55.95v-55.95h-55.95Z"/><path class="cls-2" d="M307.77,139.89v55.95h55.95v-55.95h-55.95Z"/><path class="cls-3" d="M363.72,167.87v27.98h-27.98v27.98h-55.95v-27.98h-27.99v-83.93h27.99v-27.99h55.95v-27.98h-27.98v-27.98h-55.96V0h-111.91v27.98h-55.95v27.98h-27.98v27.98h-27.99v83.94H0v223.83h27.98v26.74h55.96v-26.74h27.98v-27.98h27.98v27.98h27.98v26.74h55.95v-26.74h27.98v-27.98h27.99v27.98h27.98v26.74h55.95v-26.74h27.98v-223.83h-27.98ZM139.89,83.93h27.98v27.99h27.98v83.93h-27.98v27.98h-55.95v-27.98h-27.98v-83.93h27.98v-27.99h27.98Z"/><rect class="cls-3" x="335.74" y="83.93" width="27.98" height="27.99"/></g></svg>