<?xml version="1.0" encoding="UTF-8"?><svg id="Layer_2" xmlns="http://www.w3.org/2000/svg" viewBox="0 0 566.98 566.98"><defs><style>.cls-1{fill:#672002;}.cls-1,.cls-2,.cls-3{stroke-width:0px;}.cls-2{fill:#fa0401;}.cls-3{fill:#faf6f3;}</style></defs><g id="Layer_1-2"><path class="cls-1" d="M519.73,0h-47.25v47.25h-94.49v47.24h47.25v94.5h47.24v-94.5h94.5V0h-47.25Z"/><rect class="cls-1" x="377.98" y="189" width="47.25" height="47.24"/><path class="cls-1" d="M330.73,283.49v94.49h47.25v-141.74h-47.25v47.25Z"/><path class="cls-1" d="M283.49,94.49v47.25h94.49v-47.25h-94.49Z"/><rect class="cls-1" x="236.24" y="141.74" width="47.25" height="47.25"/><rect class="cls-1" x="188.99" y="189" width="47.25" height="47.24"/><rect class="cls-1" x="141.74" y="236.24" width="47.24" height="47.25"/><rect class="cls-3" x="330.73" y="472.49" width="47.25" height="47.24"/><rect class="cls-3" x="283.49" y="425.23" width="47.24" height="47.25"/><rect class="cls-3" x="94.49" y="377.98" width="47.25" height="47.25"/><rect class="cls-3" x="47.24" y="330.74" width="47.25" height="47.24"/><path class="cls-2" d="M472.47,330.74v-47.25h-94.49v94.49h-47.25v-94.49h-47.24v47.25h-47.25v188.99h47.25v47.25h141.74v-47.25h94.49v-188.99h-47.25ZM330.73,519.73v-47.24h-47.24v-47.25h47.24v47.25h47.25v47.24h-47.25Z"/><path class="cls-2" d="M236.24,236.24h-47.25v47.25h-47.24v-47.25h47.24v-47.24H47.24v47.24H0v189h47.24v47.25h141.74v-141.74h47.25v-94.5ZM141.74,425.23h-47.25v-47.25h-47.25v-47.24h47.25v47.24h47.25v47.25Z"/></g></svg>